# xmcd
#
# Track frame offsets:
#	150
#	15058
#	30589
#	43443
#	55613
#	69711
#	87707
#	100618
#	115165
#	130057
#	141996
#	153429
#
# Disc length: 2248 seconds
#
# Revision: 0
# Processed by: cddbd v1.5.2PL0 Copyright (c) Steve Scherf et al.
# Submitted via: EasyCDDAExtractor 16.0.6.1
#
DISCID=9b08c60c
DTITLE=Αηδονίδης Χρόνης - Τραγούδια Θράκης Μακεδονίας-Χ. Αηδονίδης 2
DYEAR=2005
DGENRE=Παραδοσιακή
TTITLE0=Τη μαύρη κορδελίτσα
TTITLE1=Με κάλεσε μιά αρχόντισσα
TTITLE2=Τι ήθελα και σ' αγαπούσα
TTITLE3=Ήρθαν καράβια στο γυαλό
TTITLE4=Τώρα που στήσαν τον χορό
TTITLE5=Όσα βουνά κι αν πέρασα
TTITLE6=Από ξένο μέρος
TTITLE7=Άνοιξαν ούλα τα δένδρα
TTITLE8=Μιά ντιρνιλούδα
TTITLE9=Μάννα μ' νιρό δεν έχουμι
TTITLE10=Με γέλασαν τα πουλιά
TTITLE11=Τρία χρόνια παντρεμένη
EXTD=
EXTT0=
EXTT1=
EXTT2=
EXTT3=
EXTT4=
EXTT5=
EXTT6=
EXTT7=
EXTT8=
EXTT9=
EXTT10=
EXTT11=
PLAYORDER=
